<?xml version="1.0" encoding="UTF-8"?>
<svg id="Laag_1" data-name="Laag 1" xmlns="http://www.w3.org/2000/svg" viewBox="0 0 525.84 353.3">
  <defs>
    <style>
      .cls-1 {
        fill: #fff;
        font-family: OCRAExtended, 'OCR A Extended';
        font-size: 39px;
        letter-spacing: -.02em;
      }

      .cls-2 {
        fill: none;
        stroke: #fff;
        stroke-miterlimit: 10;
        stroke-width: 6px;
      }
    </style>
  </defs>
  <path class="cls-2" d="m243.63,165.68h0c-13.44-3.62-19.26-18.72-12.93-33.56l46.01-107.93c6.33-14.84,22.5-24.02,35.94-20.4h0c13.44,3.62,19.26,18.72,12.93,33.56l-46.01,107.93c-6.33,14.84-22.5,24.02-35.94,20.4Z"/>
  <path class="cls-2" d="m264.18,165.32h0c-13.62,6.87-29.88.53-36.14-14.09l-45.53-106.32c-6.26-14.62-.24-32.2,13.38-39.07h0c13.62-6.87,29.88-.53,36.14,14.09l45.53,106.32c6.26,14.62.24,32.2-13.38,39.07Z"/>
  <path class="cls-2" d="m178.92,203.34h0c-12.07,5.77-27.53-1.45-34.35-16.02l-49.62-106.03c-6.82-14.58-2.53-31.22,9.54-36.99h0c12.07-5.77,27.53,1.45,34.35,16.02l49.62,106.03c6.82,14.58,2.53,31.22-9.54,36.99Z"/>
  <path class="cls-2" d="m404.22,261.74h0c-13.13-3.79-18.6-18.97-12.16-33.73l46.85-107.33c6.44-14.76,22.45-23.73,35.58-19.94h0c13.13,3.79,18.6,18.97,12.16,33.73l-46.85,107.33c-6.44,14.76-22.45,23.73-35.58,19.94Z"/>
  <path class="cls-2" d="m328.94,204.18h0c-13.13-3.79-18.6-18.97-12.16-33.73l46.85-107.33c6.44-14.76,22.45-23.73,35.58-19.94h0c13.13,3.79,18.6,18.97,12.16,33.73l-46.85,107.33c-6.44,14.76-22.45,23.73-35.58,19.94Z"/>
  <text class="cls-1" transform="translate(159.88 255.12)"><tspan x="0" y="0">NATIONAAL</tspan><tspan x="-79.85" y="46.8">VIDEOGAME MUSEUM</tspan></text>
</svg>